HIERARCHY
ROOT Hips
{
  OFFSET 5.84602e-005 68.8428 3.50346
  CHANNELS 6 Xposition Yposition Zposition Zrotation Xrotation Yrotation
  JOINT Spine
  {
    OFFSET 0 8.597 -4.6522
    CHANNELS 3 Zrotation Xrotation Yrotation
    JOINT Spine1
    {
      OFFSET 0 7.8454 0.4098
      CHANNELS 3 Zrotation Xrotation Yrotation
      JOINT Spine2
      {
        OFFSET 0 9.7078 -2.1609
        CHANNELS 3 Zrotation Xrotation Yrotation
        JOINT Neck
        {
          OFFSET 0 21.8761 -0.4549
          CHANNELS 3 Zrotation Xrotation Yrotation
          JOINT Head
          {
            OFFSET 0 12.3537 3.3602
            CHANNELS 3 Zrotation Xrotation Yrotation
            End Site
            {
              OFFSET 0.0001 18.9506 0.5657
            }
          }
        }
        JOINT LeftShoulder
        {
          OFFSET 2.2086 21.1115 7.2329
          CHANNELS 3 Zrotation Xrotation Yrotation
          JOINT LeftArm
          {
            OFFSET 13.1193 3.0282 -4.8998
            CHANNELS 3 Zrotation Xrotation Yrotation
            JOINT LeftForeArm
            {
              OFFSET 27.4081 -0.0973053 -0.2375
              CHANNELS 3 Zrotation Xrotation Yrotation
              JOINT LeftHand
              {
                OFFSET 22.8641 0.0662994 -0.1369
                CHANNELS 3 Zrotation Xrotation Yrotation
                JOINT LeftHandIndex1
                {
                  OFFSET 8.8614 0.775009 2.4612
                  CHANNELS 3 Zrotation Xrotation Yrotation
                  JOINT LeftHandIndex2
                  {
                    OFFSET 3.3146 -0.808304 0.5841
                    CHANNELS 3 Zrotation Xrotation Yrotation
                    JOINT LeftHandIndex3
                    {
                      OFFSET 2.2628 -0.552002 0.3989
                      CHANNELS 3 Zrotation Xrotation Yrotation
                      End Site
                      {
                        OFFSET 1.6102 -0.4807 0.2612
                      }
                    }
                  }
                }
                JOINT LeftHandMiddle1
                {
                  OFFSET 8.9937 0.895004 0.2143
                  CHANNELS 3 Zrotation Xrotation Yrotation
                  JOINT LeftHandMiddle2
                  {
                    OFFSET 4.0984 0.0113983 -0.0242
                    CHANNELS 3 Zrotation Xrotation Yrotation
                    JOINT LeftHandMiddle3
                    {
                      OFFSET 2.2716 0.00689697 -0.0138001
                      CHANNELS 3 Zrotation Xrotation Yrotation
                      End Site
                      {
                        OFFSET 2.0404 -0.1441 0.0027
                      }
                    }
                  }
                }
                JOINT LeftHandRing1
                {
                  OFFSET 8.5234 0.597198 -2.0164
                  CHANNELS 3 Zrotation Xrotation Yrotation
                  JOINT LeftHandRing2
                  {
                    OFFSET 3.7188 -0.188293 -0.2328
                    CHANNELS 3 Zrotation Xrotation Yrotation
                    JOINT LeftHandRing3
                    {
                      OFFSET 2.1191 -0.106598 -0.1332
                      CHANNELS 3 Zrotation Xrotation Yrotation
                      End Site
                      {
                        OFFSET 1.8737 -0.2304 -0.0886
                      }
                    }
                  }
                }
                JOINT LeftHandPinky1
                {
                  OFFSET 7.9094 -0.601089 -3.4825
                  CHANNELS 3 Zrotation Xrotation Yrotation
                  JOINT LeftHandPinky2
                  {
                    OFFSET 2.2874 -0.477005 -0.6314
                    CHANNELS 3 Zrotation Xrotation Yrotation
                    JOINT LeftHandPinky3
                    {
                      OFFSET 1.6774 -0.349396 -0.4633
                      CHANNELS 3 Zrotation Xrotation Yrotation
                      End Site
                      {
                        OFFSET 1.4888 -0.4091 -0.3416
                      }
                    }
                  }
                }
                JOINT LeftHandThumb1
                {
                  OFFSET 1.833 -1.3875 1.3896
                  CHANNELS 3 Zrotation Xrotation Yrotation
                  JOINT LeftHandThumb2
                  {
                    OFFSET 3.4129 -1.121 2.5732
                    CHANNELS 3 Zrotation Xrotation Yrotation
                    JOINT LeftHandThumb3
                    {
                      OFFSET 2.2474 -0.804199 1.6192
                      CHANNELS 3 Zrotation Xrotation Yrotation
                      End Site
                      {
                        OFFSET 1.6527 -0.5689 1.1317
                      }
                    }
                  }
                }
              }
            }
          }
        }
        JOINT RightShoulder
        {
          OFFSET -2.2086 21.1115 7.2329
          CHANNELS 3 Zrotation Xrotation Yrotation
          JOINT RightArm
          {
            OFFSET -13.1216 3.0287 -4.9007
            CHANNELS 3 Zrotation Xrotation Yrotation
            JOINT RightForeArm
            {
              OFFSET -27.4081 -0.0973053 -0.2375
              CHANNELS 3 Zrotation Xrotation Yrotation
              JOINT RightHand
              {
                OFFSET -22.8641 0.0664063 -0.1369
                CHANNELS 3 Zrotation Xrotation Yrotation
                JOINT RightHandIndex1
                {
                  OFFSET -8.8614 0.774994 2.4612
                  CHANNELS 3 Zrotation Xrotation Yrotation
                  JOINT RightHandIndex2
                  {
                    OFFSET -3.3146 -0.808304 0.5841
                    CHANNELS 3 Zrotation Xrotation Yrotation
                    JOINT RightHandIndex3
                    {
                      OFFSET -2.2628 -0.552002 0.3989
                      CHANNELS 3 Zrotation Xrotation Yrotation
                      End Site
                      {
                        OFFSET -1.6102 -0.4807 0.2612
                      }
                    }
                  }
                }
                JOINT RightHandMiddle1
                {
                  OFFSET -8.9937 0.894989 0.2143
                  CHANNELS 3 Zrotation Xrotation Yrotation
                  JOINT RightHandMiddle2
                  {
                    OFFSET -4.0984 0.0113983 -0.0242
                    CHANNELS 3 Zrotation Xrotation Yrotation
                    JOINT RightHandMiddle3
                    {
                      OFFSET -2.2716 0.00691223 -0.0138001
                      CHANNELS 3 Zrotation Xrotation Yrotation
                      End Site
                      {
                        OFFSET -2.0404 -0.1441 0.0027
                      }
                    }
                  }
                }
                JOINT RightHandRing1
                {
                  OFFSET -8.5234 0.597198 -2.0164
                  CHANNELS 3 Zrotation Xrotation Yrotation
                  JOINT RightHandRing2
                  {
                    OFFSET -3.7188 -0.188309 -0.2328
                    CHANNELS 3 Zrotation Xrotation Yrotation
                    JOINT RightHandRing3
                    {
                      OFFSET -2.1191 -0.106598 -0.1332
                      CHANNELS 3 Zrotation Xrotation Yrotation
                      End Site
                      {
                        OFFSET -1.8737 -0.2304 -0.0886
                      }
                    }
                  }
                }
                JOINT RightHandPinky1
                {
                  OFFSET -7.9094 -0.601105 -3.4825
                  CHANNELS 3 Zrotation Xrotation Yrotation
                  JOINT RightHandPinky2
                  {
                    OFFSET -2.2874 -0.477005 -0.6314
                    CHANNELS 3 Zrotation Xrotation Yrotation
                    JOINT RightHandPinky3
                    {
                      OFFSET -1.6774 -0.349396 -0.4633
                      CHANNELS 3 Zrotation Xrotation Yrotation
                      End Site
                      {
                        OFFSET -1.4888 -0.4091 -0.3416
                      }
                    }
                  }
                }
                JOINT RightHandThumb1
                {
                  OFFSET -1.833 -1.38751 1.3896
                  CHANNELS 3 Zrotation Xrotation Yrotation
                  JOINT RightHandThumb2
                  {
                    OFFSET -3.41299 -1.12099 2.5732
                    CHANNELS 3 Zrotation Xrotation Yrotation
                    JOINT RightHandThumb3
                    {
                      OFFSET -2.24741 -0.804108 1.6192
                      CHANNELS 3 Zrotation Xrotation Yrotation
                      End Site
                      {
                        OFFSET -1.6527 -0.5689 1.1317
                      }
                    }
                  }
                }
              }
            }
          }
        }
      }
    }
  }
  JOINT RightUpLeg
  {
    OFFSET -9.1966 3.8861 -0.7581
    CHANNELS 3 Zrotation Xrotation Yrotation
    JOINT RightLeg
    {
      OFFSET -0.7359 -41.0265 0
      CHANNELS 3 Zrotation Xrotation Yrotation
      JOINT RightFoot
      {
        OFFSET 0 -40.2855 0
        CHANNELS 3 Zrotation Xrotation Yrotation
        JOINT RightToeBase
        {
          OFFSET 0 -5.6122 11.7359
          CHANNELS 3 Zrotation Xrotation Yrotation
          End Site
          {
            OFFSET 0 0 7.8731
          }
        }
      }
    }
  }
  JOINT LeftUpLeg
  {
    OFFSET 9.1965 3.8864 -0.7581
    CHANNELS 3 Zrotation Xrotation Yrotation
    JOINT LeftLeg
    {
      OFFSET 0.7359 -41.0268 0
      CHANNELS 3 Zrotation Xrotation Yrotation
      JOINT LeftFoot
      {
        OFFSET 0 -40.2855 0
        CHANNELS 3 Zrotation Xrotation Yrotation
        JOINT LeftToeBase
        {
          OFFSET 0 -5.6122 11.7359
          CHANNELS 3 Zrotation Xrotation Yrotation
          End Site
          {
            OFFSET 0 0 7.8731
          }
        }
      }
    }
  }
}
MOTION
Frames:	4
Frame Time:	0.0333333
29.7939 12.9527 4.01982 -90.4034 -89.7353 89.3393 -0.323173 3.68115 -0.150206 -0.638635 7.36309 -0.280426 -0.638635 7.36312 -0.280425 8.88382e-007 -27.3573 -3.75412e-006 -0.0531117 -16.5992 -0.0194196 -13.1485 10.0768 -5.42666 -75.7044 -16.2951 -61.6235 39.6591 -45.8511 -100.103 1.76672 11.9848 -13.3391 -3.67278e-007 1.22946e-007 -3.22466e-006 -6.79955e-007 -2.0158e-007 -9.74313e-007 3.97569e-016 -3.67752e-015 -0 -3.67278e-007 1.22946e-007 -3.22466e-006 -0.0146231 -8.84002e-005 -3.40875e-006 7.95139e-016 3.67752e-015 -3.18055e-015 -3.67278e-007 1.22946e-007 -3.22466e-006 -0.0187556 -0.00117712 6.71767e-005 -1.19271e-015 -1.98785e-016 -1.59028e-015 -3.67278e-007 1.22946e-007 -3.22466e-006 -0.012248 -0.0032429 0.000671836 -1.19271e-015 -4.87022e-015 3.18055e-015 -3.67278e-007 1.22946e-007 -3.22466e-006 -6.79955e-007 -2.0158e-007 -9.74313e-007 3.97569e-016 -3.67752e-015 -0 12.6765 10.2226 6.37527 75.8101 -15.8642 61.5891 -39.6678 -45.8949 100.396 -1.80545 12.7024 13.0731 -1.36364e-007 2.95549e-008 -3.61053e-006 -2.73436e-007 -3.23701e-007 4.70308e-008 1.60407e-006 3.94674e-007 3.42603e-006 -1.36364e-007 2.95549e-008 -3.61053e-006 0.0150117 -9.08246e-005 1.35121e-005 1.19427e-006 1.00511e-007 -1.37482e-007 -1.36364e-007 2.95549e-008 -3.61053e-006 0.0190029 -0.00119068 -6.17792e-005 1.19426e-006 1.00507e-007 -1.37497e-007 -1.36364e-007 2.95549e-008 -3.61053e-006 0.0122936 -0.00325363 -0.000671635 1.19426e-006 1.00522e-007 -1.37513e-007 -1.36364e-007 2.95549e-008 -3.61053e-006 -2.73436e-007 -3.23701e-007 4.70308e-008 1.60407e-006 3.94674e-007 3.42603e-006 -34.2802 -26.6171 -43.5804 -142.679 46.551 152.717 -6.92524 16.4243 -4.404 3.97569e-016 0 -0 34.2959 -26.6338 43.561 142.693 46.5445 -152.731 6.93913 16.4547 4.39002 -8.376e-007 8.78405e-008 -1.30587e-007 
29.7938 12.9534 4.04641 -90.4034 -89.7353 89.3393 -0.323175 3.68116 -0.150207 -0.638635 7.36309 -0.280426 -0.638635 7.36312 -0.280426 -1.1945e-005 -27.5903 -1.10575e-006 -0.0535029 -17.4375 -0.0191599 -13.0777 9.93658 -5.3079 -75.7045 -16.2951 -61.6235 39.6591 -45.8511 -100.103 1.65418 11.9489 -13.1363 -9.24999e-007 -2.01046e-007 9.95507e-008 -1.31916e-006 -1.06167e-006 1.01548e-007 -1.19042e-006 1.28745e-007 1.48327e-007 -9.24999e-007 -2.01046e-007 9.95507e-008 -0.0146141 -8.91774e-005 -4.56056e-006 -1.19041e-006 1.28726e-007 1.48345e-007 -9.24999e-007 -2.01046e-007 9.95507e-008 -0.0187523 -0.00117713 6.62078e-005 -1.19041e-006 1.28722e-007 1.48361e-007 -9.24999e-007 -2.01046e-007 9.95507e-008 -0.0122969 -0.00325746 0.000677546 -7.77334e-007 6.62982e-007 1.17444e-006 -9.24999e-007 -2.01046e-007 9.95507e-008 -1.31916e-006 -1.06167e-006 1.01548e-007 -1.19042e-006 1.28745e-007 1.48327e-007 12.6152 10.0777 6.23522 75.8101 -15.8642 61.5891 -39.6678 -45.8949 100.396 -1.69179 12.6559 12.8738 2.73387e-007 3.23771e-007 -4.69031e-008 4.43866e-007 4.45656e-007 -4.5111e-006 3.74155e-007 -8.70544e-007 3.79215e-009 2.73387e-007 3.23771e-007 -4.69031e-008 0.0150109 -9.11126e-005 1.24788e-005 7.83804e-007 -5.69225e-007 3.56432e-006 2.73387e-007 3.23771e-007 -4.69031e-008 0.0189975 -0.00119116 -6.65372e-005 3.74136e-007 -8.70542e-007 3.93261e-009 2.73387e-007 3.23771e-007 -4.69031e-008 0.0122386 -0.00324001 -0.000673909 3.74148e-007 -8.70538e-007 3.87521e-009 2.73387e-007 3.23771e-007 -4.69031e-008 4.43866e-007 4.45656e-007 -4.5111e-006 3.74155e-007 -8.70544e-007 3.79215e-009 -34.2765 -26.6179 -43.5774 -142.592 46.6488 152.584 -6.92336 16.4217 -4.4035 1.30235e-007 -5.41959e-008 -8.3784e-007 34.2922 -26.6344 43.558 142.606 46.6439 -152.599 6.93734 16.4521 4.38946 -2.06736e-014 6.36111e-015 -9.54166e-015 
29.7938 12.9542 4.073 -90.4034 -89.7353 89.3393 -0.323173 3.68115 -0.150206 -0.638635 7.36309 -0.280426 -0.638635 7.36312 -0.280425 2.31278e-006 -27.8239 1.25319e-006 -0.0539888 -18.2769 -0.0192273 -13.0067 9.79648 -5.189 -75.7045 -16.2951 -61.6235 39.6591 -45.8511 -100.103 1.54177 11.9125 -12.9335 -7.96041e-007 9.89612e-007 1.46082e-007 7.88788e-007 1.72113e-006 -3.62294e-009 1.29047e-007 1.19043e-006 4.68826e-008 -7.96041e-007 9.89612e-007 1.46082e-007 -0.0146081 -8.75682e-005 7.72249e-006 1.29028e-007 1.19043e-006 4.70342e-008 -7.96041e-007 9.89612e-007 1.46082e-007 -0.018754 -0.00117716 6.37342e-005 1.29024e-007 1.19043e-006 4.70761e-008 -7.96041e-007 9.89612e-007 1.46082e-007 -0.0122765 -0.00324904 0.000685891 1.2904e-007 1.19042e-006 4.70073e-008 -7.96041e-007 9.89612e-007 1.46082e-007 7.88788e-007 1.72113e-006 -3.62294e-009 1.29047e-007 1.19043e-006 4.68826e-008 12.5535 9.93293 6.09506 75.8101 -15.8643 61.5891 -39.6678 -45.8949 100.396 -1.57831 12.609 12.6746 -5.46674e-007 -6.47682e-007 9.35498e-008 -7.95139e-016 8.05078e-015 -0 -1.72328e-007 -1.5182e-006 9.75086e-008 -5.46674e-007 -6.47682e-007 9.35498e-008 0.0149939 -9.07569e-005 1.03708e-006 -1.72349e-007 -1.51818e-006 9.77073e-008 -5.46674e-007 -6.47682e-007 9.35498e-008 0.0190069 -0.00119167 -4.90864e-005 -1.72353e-007 -1.51818e-006 9.77622e-008 -5.46674e-007 -6.47682e-007 9.35498e-008 0.0123168 -0.00326051 -0.00067659 -1.72334e-007 -1.51818e-006 9.76776e-008 -5.46674e-007 -6.47682e-007 9.35498e-008 -7.95139e-016 8.05078e-015 -0 -1.72328e-007 -1.5182e-006 9.75086e-008 -34.2729 -26.6186 -43.5743 -142.504 46.7465 152.45 -6.92149 16.4192 -4.403 1.69313e-007 -1.67578e-006 1.08376e-007 34.2884 -26.6351 43.555 142.52 46.7431 -152.466 6.93555 16.4495 4.38885 5.97142e-007 1.63082e-006 1.66245e-007 
29.7938 12.9549 4.09959 -90.4034 -89.7353 89.3393 -0.323173 3.68115 -0.150206 -0.638635 7.36309 -0.280426 -0.638635 7.36312 -0.280425 4.11924e-007 -28.0572 -1.87531e-006 -0.0548186 -19.1173 -0.0203414 -12.9354 9.65652 -5.06996 -75.7044 -16.2951 -61.6235 39.6591 -45.8511 -100.103 1.4295 11.8758 -12.7309 -6.59197e-007 5.42024e-007 5.47366e-006 7.95825e-007 -9.89852e-007 -1.45834e-007 -2.95196e-008 7.26582e-008 8.63789e-006 -6.59197e-007 5.42024e-007 5.47366e-006 -0.0146119 -8.8316e-005 2.74392e-006 -3.94468e-007 2.11378e-007 5.42507e-006 -6.59197e-007 5.42024e-007 5.47366e-006 -0.0187486 -0.0011765 5.18446e-005 -2.76757e-008 7.1355e-008 8.6379e-006 -6.59197e-007 5.42024e-007 5.47366e-006 -0.0122684 -0.00324901 0.000675923 -2.81257e-008 7.20376e-008 8.63783e-006 -6.59197e-007 5.42024e-007 5.47366e-006 7.95825e-007 -9.89852e-007 -1.45834e-007 -2.95196e-008 7.26582e-008 8.63789e-006 12.4914 9.7883 5.9548 75.8101 -15.8643 61.5891 -39.6678 -45.8949 100.396 -1.46501 12.5617 12.4754 -7.95139e-016 -8.64713e-015 1.59028e-015 -2.73287e-007 -3.23912e-007 4.66463e-008 -1.59028e-015 -6.95746e-016 1.59028e-015 -7.95139e-016 -8.64713e-015 1.59028e-015 0.0149884 -9.16801e-005 3.32198e-006 5.56597e-015 -3.12092e-014 1.59028e-015 -7.95139e-016 -8.64713e-015 1.59028e-015 0.0189892 -0.00118999 -5.78903e-005 -9.54103e-007 -4.1694e-007 -5.95412e-006 -7.95139e-016 -8.64713e-015 1.59028e-015 0.0122753 -0.00324777 -0.000671482 -7.95139e-016 1.98785e-016 -1.59028e-015 -7.95139e-016 -8.64713e-015 1.59028e-015 -2.73287e-007 -3.23912e-007 4.66463e-008 -1.59028e-015 -6.95746e-016 1.59028e-015 -34.2691 -26.6195 -43.5711 -142.415 46.844 152.315 -6.91961 16.4167 -4.40247 4.37326e-015 3.18055e-015 -4.77083e-015 34.2847 -26.6355 43.5519 142.433 46.8423 -152.333 6.93377 16.4468 4.38824 4.18873e-007 -4.48994e-008 6.41513e-008 
